<svg xmlns="http://www.w3.org/2000/svg" width="127.274" height="17.39" viewBox="0 0 127.274 17.39">
  <g id="LOGO" transform="translate(-386 -15.61)">
    <g id="Incinerator" transform="translate(415.016 21.016)">
      <g id="组_84" data-name="组 84" transform="translate(1.055 0.196)">
        <path id="路径_197" data-name="路径 197" d="M181.379,295.075v10.282h-2.571V295.075Z" transform="translate(-178.808 -295.065)" fill="#fff"/>
        <path id="路径_198" data-name="路径 198" d="M188.848,299.309v6.047h-2.561V295.1l-.01-.021h.01v-.01h2.561v.01l4.123,5.974v-5.974h2.581v10.211l.041.061h-2.623v-.082Z" transform="translate(-182.782 -295.063)" fill="#fff"/>
        <path id="路径_199" data-name="路径 199" d="M217.338,295.075,216.3,297.3h-3.342q-2.149.01-2.19,2.889.021,2.952,1.933,2.941h4.638v2.231h-5.049q-4.216-.514-4.216-5.141t4.627-5.141Z" transform="translate(-194.378 -295.065)" fill="#fff"/>
        <path id="路径_200" data-name="路径 200" d="M232.419,295.075v10.282h-2.571V295.075Z" transform="translate(-205.963 -295.065)" fill="#fff"/>
        <path id="路径_201" data-name="路径 201" d="M239.888,299.309v6.047h-2.561V295.1l-.01-.021h.01v-.01h2.561v.01l4.123,5.974v-5.974h2.581v10.211l.041.061h-2.622v-.082Z" transform="translate(-209.937 -295.063)" fill="#fff"/>
        <path id="路径_202" data-name="路径 202" d="M267.44,295.119l-1.131,2.241h-7.2v-2.241Zm-1.131,3.948v2.2h-7.2v-2.2Zm.617,4.083v2.231h-7.815V303.15Z" transform="translate(-221.532 -295.088)" fill="#fff"/>
        <path id="路径_203" data-name="路径 203" d="M278.25,305.38V295.119h5.882a3.42,3.42,0,0,1,2.35.961,3.223,3.223,0,0,1,.91,2.4,2.975,2.975,0,0,1-2.344,3.147l2.591,3.753h-3.125l-3.7-5.254v5.254Zm2.571-5.809h3.095a1.144,1.144,0,0,0-.082-2.211h-3.013Z" transform="translate(-231.715 -295.088)" fill="#fff"/>
        <path id="路径_204" data-name="路径 204" d="M310.99,305.391h-2.725l-.833-1.851h-2.766l-1.255-1.717-1.614,3.568H298.97l4.565-10.272h2.879Zm-4.576-4.123-1.4-3.064-1.368,3.064Z" transform="translate(-242.739 -295.088)" fill="#fff"/>
        <path id="路径_205" data-name="路径 205" d="M324.312,297.31h-3.084V295.1h9.265l-1.038,2.211h-2.572v8.061h-2.571Z" transform="translate(-254.581 -295.079)" fill="#fff"/>
        <path id="路径_206" data-name="路径 206" d="M352.719,300.195a5.171,5.171,0,0,1-1.352,3.722,5.017,5.017,0,0,1-3.811,1.419,4.914,4.914,0,0,1-3.8-1.475,5.2,5.2,0,0,1-1.363-3.666,4.966,4.966,0,0,1,1.456-3.723,5.14,5.14,0,0,1,8.869,3.723Zm-2.694,0a3.824,3.824,0,0,0-.545-2.093,1.955,1.955,0,0,0-1.788-.859,2.206,2.206,0,0,0-1.939.869,3.528,3.528,0,0,0-.612,2.083,3.725,3.725,0,0,0,.607,1.984,2.119,2.119,0,0,0,1.944.977,1.945,1.945,0,0,0,1.788-.874,3.863,3.863,0,0,0,.545-2.087Z" transform="translate(-265.838 -295.053)" fill="#fff"/>
        <path id="路径_207" data-name="路径 207" d="M366.467,305.38V295.119h5.881a3.421,3.421,0,0,1,2.35.961,3.224,3.224,0,0,1,.91,2.4,2.976,2.976,0,0,1-2.344,3.147l2.591,3.753h-3.126l-3.7-5.254v5.254Zm2.571-5.809h3.095a1.143,1.143,0,0,0-.082-2.211h-3.013Z" transform="translate(-278.65 -295.088)" fill="#fff"/>
      </g>
    </g>
    <g id="logo_小图标" data-name="logo 小图标" transform="translate(386 15.61)">
      <path id="路径_3" data-name="路径 3" d="M739.792,196.485h-9.954l.05-12.323a11.744,11.744,0,0,1,4.612.909l1.681-2a1.463,1.463,0,0,1,2.232,1.877l-1.4,1.666a11.031,11.031,0,0,1,1.832,1.975,12.762,12.762,0,0,1,1.273,2.193,13.152,13.152,0,0,1,1.134,4.107,1.466,1.466,0,0,1-1.335,1.585Q739.852,196.484,739.792,196.485Zm-5.518-8.1a1.765,1.765,0,1,0,1.765,1.765A1.765,1.765,0,0,0,734.274,188.38Z" transform="translate(-717.48 -179.517)" fill="#fff"/>
      <path id="路径_4" data-name="路径 4" d="M8.691,202.861a1.455,1.455,0,0,1-1.445-1.308,1.475,1.475,0,0,1-.007-.154,13.134,13.134,0,0,1,1.931-6.585,11.248,11.248,0,0,1,1.736-2.162L9.415,191.2a1.458,1.458,0,1,1,2.033-2.09l1.853,1.8a12.47,12.47,0,0,1,4.461-1.337l1.474,12.235-10.4,1.042a1.479,1.479,0,0,1-.149.009Zm5.275-8.968a1.765,1.765,0,1,0,1.765,1.765A1.765,1.765,0,0,0,13.967,193.893Z" transform="translate(-7.238 -185.471)" fill="#fff"/>
      <path id="路径_5" data-name="路径 5" d="M661.128.337,662.168,0l.522,2.941h-.2Z" transform="translate(-649.945)" fill="#fff"/>
      <path id="路径_6" data-name="路径 6" d="M809.4,79l-.677-.219-.339,1.913h.133Z" transform="translate(-794.686 -77.43)" fill="#fff"/>
    </g>
  </g>
</svg>
